
<svg xmlns="http://www.w3.org/2000/svg"  viewBox="0 0 50 50" width="100px" height="100px">
  <path d="M 18 7.1054688 L 17.5 7.3945312 L 12.5 10.283203 L 12 10.572266 L 12 11.150391 L 12 12.882812 L 1.5 18.943359 L 1 19.232422 L 1 19.810547 L 1 23.269531 L 1 23.847656 L 1.5 24.136719 L 31.5 41.455078 L 32 41.744141 L 32.5 41.455078 L 48.5 32.216797 L 49 31.927734 L 49 31.349609 L 49 25.570312 L 49 24.992188 L 48.5 24.703125 L 18.5 7.3925781 L 18 7.1054688 z M 18 8.5488281 L 47.5 25.570312 L 43 28.175781 L 38.1875 25.398438 A 0.250025 0.250025 0 0 0 38.072266 25.332031 A 0.250025 0.250025 0 0 0 38.068359 25.330078 L 36.177734 24.238281 A 0.250025 0.250025 0 0 0 36.074219 24.179688 L 34.158203 23.072266 A 0.250025 0.250025 0 0 0 34.091797 23.035156 L 32.177734 21.929688 A 0.250025 0.250025 0 0 0 32.074219 21.871094 L 30.15625 20.761719 A 0.250025 0.250025 0 0 0 30.089844 20.724609 L 28.177734 19.621094 A 0.250025 0.250025 0 0 0 28.074219 19.5625 L 24.175781 17.3125 A 0.250025 0.250025 0 0 0 24.171875 17.308594 L 24.166016 17.304688 A 0.250025 0.250025 0 0 0 24.0625 17.246094 L 22.1875 16.164062 A 0.250025 0.250025 0 0 0 22.060547 16.091797 L 20.167969 14.998047 A 0.250025 0.250025 0 0 0 20.082031 14.949219 L 18.1875 13.855469 A 0.250025 0.250025 0 0 0 18.060547 13.783203 L 13.5 11.150391 L 18 8.5488281 z M 13.25 11.583984 L 17.492188 14.03125 L 15.998047 14.896484 L 13.25 13.316406 L 13.25 11.583984 z M 13 13.748047 L 15.498047 15.183594 L 11.884766 17.271484 A 0.25025175 0.25025175 0 0 0 11.880859 17.273438 L 11.875 17.277344 A 0.25025175 0.25025175 0 0 0 11.863281 17.285156 A 0.250025 0.250025 0 0 0 11.853516 17.291016 A 0.25025175 0.25025175 0 0 0 11.84375 17.298828 A 0.250025 0.250025 0 0 0 11.833984 17.306641 A 0.25025175 0.25025175 0 0 0 11.824219 17.316406 A 0.250025 0.250025 0 0 0 11.816406 17.324219 A 0.25025175 0.25025175 0 0 0 11.792969 17.353516 A 0.250025 0.250025 0 0 0 11.787109 17.363281 A 0.25025175 0.25025175 0 0 0 11.769531 17.398438 A 0.250025 0.250025 0 0 0 11.765625 17.408203 A 0.25025175 0.25025175 0 0 0 11.751953 17.455078 A 0.250025 0.250025 0 0 0 11.751953 17.457031 A 0.250025 0.250025 0 0 0 11.751953 17.458984 A 0.25025175 0.25025175 0 0 0 11.75 17.470703 A 0.250025 0.250025 0 0 0 11.75 17.494141 A 0.25025175 0.25025175 0 0 0 11.75 17.496094 L 11.748047 19.802734 A 0.250025 0.250025 0 0 0 11.873047 20.017578 L 13.841797 21.15625 A 0.250025 0.250025 0 0 0 14.148438 21.158203 L 15.75 20.238281 L 15.748047 22.111328 A 0.250025 0.250025 0 0 0 15.873047 22.328125 L 17.841797 23.464844 A 0.250025 0.250025 0 0 0 18.148438 23.466797 L 24 20.091797 L 25.501953 20.957031 L 21.925781 23.023438 A 0.250025 0.250025 0 0 0 21.751953 23.335938 L 21.748047 25.576172 A 0.250025 0.250025 0 0 0 21.873047 25.792969 L 23.84375 26.929688 A 0.250025 0.250025 0 0 0 24.150391 26.931641 L 25.75 26.011719 L 25.75 27.886719 A 0.250025 0.250025 0 0 0 25.875 28.103516 L 27.84375 29.238281 A 0.250025 0.250025 0 0 0 28.164062 29.232422 L 29.751953 28.318359 L 29.748047 30.193359 A 0.250025 0.250025 0 0 0 29.873047 30.410156 L 31.841797 31.546875 L 31.84375 31.548828 A 0.250025 0.250025 0 0 0 32.160156 31.546875 A 0.250025 0.250025 0 0 0 32.164062 31.542969 L 38.001953 28.175781 L 42.5 30.771484 L 32 36.835938 L 2.5 19.810547 L 13 13.748047 z M 17.994141 14.322266 L 19.494141 15.1875 L 14 18.359375 L 12.5 17.494141 L 16.052734 15.443359 A 0.250025 0.250025 0 0 0 16.216797 15.347656 L 17.994141 14.322266 z M 19.75 15.617188 L 19.751953 17.347656 L 15.941406 19.548828 A 0.250025 0.250025 0 0 0 15.792969 19.634766 L 14.248047 20.525391 L 14.25 18.792969 L 19.75 15.617188 z M 20.25 15.623047 L 21.494141 16.339844 L 20.251953 17.058594 L 20.25 15.623047 z M 21.994141 16.628906 L 23.496094 17.496094 L 18 20.669922 L 16.5 19.804688 L 20.080078 17.736328 A 0.250025 0.250025 0 0 0 20.166016 17.685547 L 21.994141 16.628906 z M 23.75 17.925781 L 23.75 19.658203 L 18.248047 22.833984 L 18.25 21.103516 L 23.75 17.925781 z M 12.25 17.927734 L 13.75 18.792969 L 13.748047 20.523438 L 12.248047 19.658203 L 12.25 17.927734 z M 24.25 17.931641 L 27.496094 19.804688 L 26.001953 20.667969 L 24.251953 19.658203 L 24.25 17.931641 z M 27.998047 20.09375 L 29.498047 20.958984 L 24 24.134766 L 22.5 23.269531 L 26.117188 21.179688 A 0.25025175 0.25025175 0 0 0 26.138672 21.166016 L 27.998047 20.09375 z M 16.25 20.236328 L 17.75 21.103516 L 17.748047 22.832031 L 16.248047 21.966797 L 16.25 20.236328 z M 2.25 20.244141 L 31.75 37.267578 L 31.75 40.15625 L 2.25 23.125 L 2.25 20.244141 z M 29.751953 21.390625 L 29.751953 23.121094 L 25.886719 25.355469 A 0.250025 0.250025 0 0 0 25.884766 25.357422 L 25.875 25.361328 A 0.250025 0.250025 0 0 0 25.869141 25.365234 A 0.25074223 0.25074223 0 0 0 25.861328 25.369141 A 0.250025 0.250025 0 0 0 25.853516 25.375 L 24.25 26.298828 L 24.251953 24.566406 L 29.751953 21.390625 z M 30.251953 21.394531 L 31.496094 22.113281 L 30.251953 22.832031 L 30.251953 21.394531 z M 31.998047 22.402344 L 33.498047 23.267578 L 28.001953 26.443359 L 26.5 25.576172 L 30.080078 23.509766 A 0.250025 0.250025 0 0 0 30.166016 23.458984 L 31.998047 22.402344 z M 22.25 23.701172 L 23.751953 24.566406 L 23.75 26.298828 L 22.25 25.431641 L 22.25 23.701172 z M 33.751953 23.701172 L 33.751953 25.431641 L 29.875 27.669922 A 0.250025 0.250025 0 0 0 29.853516 27.683594 L 28.25 28.607422 L 28.251953 26.876953 L 33.751953 23.701172 z M 34.251953 23.703125 L 35.5 24.421875 L 34.251953 25.142578 L 34.251953 23.703125 z M 36 24.710938 L 37.5 25.578125 L 32.001953 28.753906 L 30.501953 27.886719 L 34.080078 25.818359 A 0.250025 0.250025 0 0 0 34.154297 25.777344 L 36 24.710938 z M 47.75 26.003906 L 47.75 31.205078 L 43.25 33.804688 L 43.251953 28.607422 L 47.75 26.003906 z M 37.751953 26.009766 L 37.751953 27.742188 L 32.25 30.916016 L 32.251953 29.185547 L 37.751953 26.009766 z M 38.251953 26.009766 L 42.751953 28.607422 L 42.751953 30.339844 L 38.251953 27.742188 L 38.251953 26.009766 z M 26.25 26.011719 L 27.751953 26.878906 L 27.75 28.607422 L 26.25 27.742188 L 26.25 26.011719 z M 30.25 28.320312 L 31.751953 29.1875 L 31.75 30.916016 L 30.25 30.048828 L 30.25 28.320312 z M 42.751953 31.205078 L 42.75 34.091797 L 32.25 40.15625 L 32.25 37.267578 L 42.751953 31.205078 z"/>
  <path d="M 18 7.1054688" />
</svg>
